<?xml version="1.0" encoding="UTF-8" standalone="no"?>
<!DOCTYPE svg PUBLIC "-//W3C//DTD SVG 1.1//EN"
 "http://www.w3.org/Graphics/SVG/1.1/DTD/svg11.dtd">
<!-- Generated by graphviz version 2.43.0 (0)
 -->
<!-- Title: DATA_ANALYST_DFA Pages: 1 -->
<svg width="690pt" height="96pt"
 viewBox="0.00 0.00 689.54 96.08" xmlns="http://www.w3.org/2000/svg" xmlns:xlink="http://www.w3.org/1999/xlink">
<g id="graph0" class="graph" transform="scale(1 1) rotate(0) translate(4 92.08)">
<title>DATA_ANALYST_DFA</title>
<polygon fill="white" stroke="transparent" points="-4,4 -4,-92.08 685.54,-92.08 685.54,4 -4,4"/>
<!-- start -->
<g id="node1" class="node">
<title>start</title>
<ellipse fill="black" stroke="black" cx="1.8" cy="-22.04" rx="1.8" ry="1.8"/>
</g>
<!-- q0 -->
<g id="node2" class="node">
<title>q0</title>
<ellipse fill="none" stroke="black" cx="58.64" cy="-22.04" rx="18.08" ry="18.08"/>
<text text-anchor="middle" x="58.64" y="-19.24" font-family="Helvetica,sans-Serif" font-size="11.00">q0</text>
</g>
<!-- start&#45;&gt;q0 -->
<g id="edge1" class="edge">
<title>start&#45;&gt;q0</title>
<path fill="none" stroke="black" d="M3.75,-22.04C7.06,-22.04 18.5,-22.04 29.99,-22.04"/>
<polygon fill="black" stroke="black" points="30.33,-25.54 40.33,-22.04 30.33,-18.54 30.33,-25.54"/>
</g>
<!-- q1 -->
<g id="node5" class="node">
<title>q1</title>
<ellipse fill="none" stroke="black" cx="191.72" cy="-22.04" rx="18.08" ry="18.08"/>
<text text-anchor="middle" x="191.72" y="-19.24" font-family="Helvetica,sans-Serif" font-size="11.00">q1</text>
</g>
<!-- q0&#45;&gt;q1 -->
<g id="edge2" class="edge">
<title>q0&#45;&gt;q1</title>
<path fill="none" stroke="black" d="M76.78,-22.04C98.76,-22.04 137.15,-22.04 163.24,-22.04"/>
<polygon fill="black" stroke="black" points="163.58,-25.54 173.58,-22.04 163.58,-18.54 163.58,-25.54"/>
<text text-anchor="middle" x="125.18" y="-44.84" font-family="Helvetica,sans-Serif" font-size="9.00">SQL</text>
<text text-anchor="middle" x="125.18" y="-34.84" font-family="Helvetica,sans-Serif" font-size="9.00">MYSQL</text>
<text text-anchor="middle" x="125.18" y="-24.84" font-family="Helvetica,sans-Serif" font-size="9.00">POSTGRESQL</text>
</g>
<!-- q4 -->
<g id="node3" class="node">
<title>q4</title>
<ellipse fill="none" stroke="black" cx="524.96" cy="-22.04" rx="18.07" ry="18.07"/>
<ellipse fill="none" stroke="black" cx="524.96" cy="-22.04" rx="22.08" ry="22.08"/>
<text text-anchor="middle" x="524.96" y="-19.24" font-family="Helvetica,sans-Serif" font-size="11.00">q4</text>
</g>
<!-- q4&#45;&gt;q4 -->
<g id="edge9" class="edge">
<title>q4&#45;&gt;q4</title>
<path fill="none" stroke="black" d="M514.53,-41.82C512.76,-52.42 516.24,-62.08 524.96,-62.08 530.69,-62.08 534.15,-57.92 535.35,-52.06"/>
<polygon fill="black" stroke="black" points="538.86,-51.83 535.39,-41.82 531.86,-51.81 538.86,-51.83"/>
<text text-anchor="middle" x="524.96" y="-74.88" font-family="Helvetica,sans-Serif" font-size="9.00">PYTHON</text>
<text text-anchor="middle" x="524.96" y="-64.88" font-family="Helvetica,sans-Serif" font-size="9.00">R</text>
</g>
<!-- q5 -->
<g id="node4" class="node">
<title>q5</title>
<ellipse fill="none" stroke="black" cx="656.04" cy="-22.04" rx="18.07" ry="18.07"/>
<ellipse fill="none" stroke="black" cx="656.04" cy="-22.04" rx="22.08" ry="22.08"/>
<text text-anchor="middle" x="656.04" y="-19.24" font-family="Helvetica,sans-Serif" font-size="11.00">q5</text>
</g>
<!-- q4&#45;&gt;q5 -->
<g id="edge10" class="edge">
<title>q4&#45;&gt;q5</title>
<path fill="none" stroke="black" d="M547.28,-22.04C568.02,-22.04 599.78,-22.04 623.45,-22.04"/>
<polygon fill="black" stroke="black" points="623.69,-25.54 633.69,-22.04 623.69,-18.54 623.69,-25.54"/>
<text text-anchor="middle" x="590.5" y="-24.84" font-family="Helvetica,sans-Serif" font-size="9.00">STATISTICS</text>
</g>
<!-- q5&#45;&gt;q5 -->
<g id="edge11" class="edge">
<title>q5&#45;&gt;q5</title>
<path fill="none" stroke="black" d="M644.7,-40.99C642.39,-51.91 646.17,-62.08 656.04,-62.08 662.68,-62.08 666.56,-57.49 667.69,-51.17"/>
<polygon fill="black" stroke="black" points="671.18,-50.88 667.38,-40.99 664.19,-51.09 671.18,-50.88"/>
<text text-anchor="middle" x="656.04" y="-64.88" font-family="Helvetica,sans-Serif" font-size="9.00">STATISTICS</text>
</g>
<!-- q1&#45;&gt;q1 -->
<g id="edge3" class="edge">
<title>q1&#45;&gt;q1</title>
<path fill="none" stroke="black" d="M183.09,-37.97C180.83,-48.22 183.71,-58.08 191.72,-58.08 196.98,-58.08 200.02,-53.83 200.86,-48.02"/>
<polygon fill="black" stroke="black" points="204.35,-47.79 200.35,-37.97 197.36,-48.14 204.35,-47.79"/>
<text text-anchor="middle" x="191.72" y="-80.88" font-family="Helvetica,sans-Serif" font-size="9.00">SQL</text>
<text text-anchor="middle" x="191.72" y="-70.88" font-family="Helvetica,sans-Serif" font-size="9.00">MYSQL</text>
<text text-anchor="middle" x="191.72" y="-60.88" font-family="Helvetica,sans-Serif" font-size="9.00">POSTGRESQL</text>
</g>
<!-- q2 -->
<g id="node6" class="node">
<title>q2</title>
<ellipse fill="none" stroke="black" cx="292.8" cy="-22.04" rx="18.08" ry="18.08"/>
<text text-anchor="middle" x="292.8" y="-19.24" font-family="Helvetica,sans-Serif" font-size="11.00">q2</text>
</g>
<!-- q1&#45;&gt;q2 -->
<g id="edge4" class="edge">
<title>q1&#45;&gt;q2</title>
<path fill="none" stroke="black" d="M209.98,-22.04C225.04,-22.04 247.15,-22.04 264.59,-22.04"/>
<polygon fill="black" stroke="black" points="264.74,-25.54 274.74,-22.04 264.74,-18.54 264.74,-25.54"/>
<text text-anchor="middle" x="242.26" y="-24.84" font-family="Helvetica,sans-Serif" font-size="9.00">EXCEL</text>
</g>
<!-- q2&#45;&gt;q2 -->
<g id="edge5" class="edge">
<title>q2&#45;&gt;q2</title>
<path fill="none" stroke="black" d="M284.17,-37.97C281.92,-48.22 284.79,-58.08 292.8,-58.08 298.06,-58.08 301.1,-53.83 301.94,-48.02"/>
<polygon fill="black" stroke="black" points="305.43,-47.79 301.43,-37.97 298.44,-48.14 305.43,-47.79"/>
<text text-anchor="middle" x="292.8" y="-60.88" font-family="Helvetica,sans-Serif" font-size="9.00">EXCEL</text>
</g>
<!-- q3 -->
<g id="node7" class="node">
<title>q3</title>
<ellipse fill="none" stroke="black" cx="411.88" cy="-22.04" rx="18.08" ry="18.08"/>
<text text-anchor="middle" x="411.88" y="-19.24" font-family="Helvetica,sans-Serif" font-size="11.00">q3</text>
</g>
<!-- q2&#45;&gt;q3 -->
<g id="edge6" class="edge">
<title>q2&#45;&gt;q3</title>
<path fill="none" stroke="black" d="M311.08,-22.04C330.1,-22.04 360.95,-22.04 383.32,-22.04"/>
<polygon fill="black" stroke="black" points="383.53,-25.54 393.53,-22.04 383.53,-18.54 383.53,-25.54"/>
<text text-anchor="middle" x="352.34" y="-34.84" font-family="Helvetica,sans-Serif" font-size="9.00">POWER_BI</text>
<text text-anchor="middle" x="352.34" y="-24.84" font-family="Helvetica,sans-Serif" font-size="9.00">TABLEAU</text>
</g>
<!-- q3&#45;&gt;q4 -->
<g id="edge8" class="edge">
<title>q3&#45;&gt;q4</title>
<path fill="none" stroke="black" d="M430.24,-22.04C446.86,-22.04 472.34,-22.04 492.54,-22.04"/>
<polygon fill="black" stroke="black" points="492.54,-25.54 502.54,-22.04 492.54,-18.54 492.54,-25.54"/>
<text text-anchor="middle" x="466.42" y="-34.84" font-family="Helvetica,sans-Serif" font-size="9.00">PYTHON</text>
<text text-anchor="middle" x="466.42" y="-24.84" font-family="Helvetica,sans-Serif" font-size="9.00">R</text>
</g>
<!-- q3&#45;&gt;q3 -->
<g id="edge7" class="edge">
<title>q3&#45;&gt;q3</title>
<path fill="none" stroke="black" d="M402.65,-37.6C400.05,-47.98 403.13,-58.08 411.88,-58.08 417.63,-58.08 420.93,-53.73 421.78,-47.8"/>
<polygon fill="black" stroke="black" points="425.26,-47.35 421.11,-37.6 418.27,-47.81 425.26,-47.35"/>
<text text-anchor="middle" x="411.88" y="-70.88" font-family="Helvetica,sans-Serif" font-size="9.00">POWER_BI</text>
<text text-anchor="middle" x="411.88" y="-60.88" font-family="Helvetica,sans-Serif" font-size="9.00">TABLEAU</text>
</g>
</g>
</svg>
