<?xml version="1.0" encoding="UTF-8" standalone="no"?>
<!DOCTYPE svg PUBLIC "-//W3C//DTD SVG 1.1//EN"
 "http://www.w3.org/Graphics/SVG/1.1/DTD/svg11.dtd">
<!-- Generated by graphviz version 2.43.0 (0)
 -->
<!-- Title: DEVOPS_ENGINEER_ENFA Pages: 1 -->
<svg width="1611pt" height="64pt"
 viewBox="0.00 0.00 1611.40 64.25" xmlns="http://www.w3.org/2000/svg" xmlns:xlink="http://www.w3.org/1999/xlink">
<g id="graph0" class="graph" transform="scale(1 1) rotate(0) translate(4 60.25)">
<title>DEVOPS_ENGINEER_ENFA</title>
<polygon fill="white" stroke="transparent" points="-4,4 -4,-60.25 1607.4,-60.25 1607.4,4 -4,4"/>
<!-- start -->
<g id="node1" class="node">
<title>start</title>
<ellipse fill="black" stroke="black" cx="1.8" cy="-26.25" rx="1.8" ry="1.8"/>
</g>
<!-- q0 -->
<g id="node2" class="node">
<title>q0</title>
<ellipse fill="none" stroke="black" cx="58.64" cy="-26.25" rx="18.08" ry="18.08"/>
<text text-anchor="middle" x="58.64" y="-23.45" font-family="Helvetica,sans-Serif" font-size="11.00">q0</text>
</g>
<!-- start&#45;&gt;q0 -->
<g id="edge1" class="edge">
<title>start&#45;&gt;q0</title>
<path fill="none" stroke="black" d="M3.75,-26.25C7.06,-26.25 18.5,-26.25 29.99,-26.25"/>
<polygon fill="black" stroke="black" points="30.33,-29.75 40.33,-26.25 30.33,-22.75 30.33,-29.75"/>
</g>
<!-- q1 -->
<g id="node4" class="node">
<title>q1</title>
<ellipse fill="none" stroke="black" cx="158.72" cy="-26.25" rx="18.08" ry="18.08"/>
<text text-anchor="middle" x="158.72" y="-23.45" font-family="Helvetica,sans-Serif" font-size="11.00">q1</text>
</g>
<!-- q0&#45;&gt;q1 -->
<g id="edge2" class="edge">
<title>q0&#45;&gt;q1</title>
<path fill="none" stroke="black" d="M76.72,-26.25C91.54,-26.25 113.25,-26.25 130.47,-26.25"/>
<polygon fill="black" stroke="black" points="130.5,-29.75 140.5,-26.25 130.5,-22.75 130.5,-29.75"/>
<text text-anchor="middle" x="108.68" y="-29.05" font-family="Helvetica,sans-Serif" font-size="9.00">LINUX</text>
</g>
<!-- q15 -->
<g id="node3" class="node">
<title>q15</title>
<ellipse fill="none" stroke="black" cx="1577.15" cy="-26.25" rx="22.46" ry="22.46"/>
<ellipse fill="none" stroke="black" cx="1577.15" cy="-26.25" rx="26.5" ry="26.5"/>
<text text-anchor="middle" x="1577.15" y="-23.45" font-family="Helvetica,sans-Serif" font-size="11.00">q15</text>
</g>
<!-- q14 -->
<g id="node17" class="node">
<title>q14</title>
<ellipse fill="none" stroke="black" cx="1476.65" cy="-26.25" rx="22.5" ry="22.5"/>
<text text-anchor="middle" x="1476.65" y="-23.45" font-family="Helvetica,sans-Serif" font-size="11.00">q14</text>
</g>
<!-- q15&#45;&gt;q14 -->
<g id="edge24" class="edge">
<title>q15&#45;&gt;q14</title>
<path fill="none" stroke="black" stroke-dasharray="5,2" d="M1552.64,-16.21C1541.82,-12.75 1528.77,-10.2 1516.9,-12.25 1513.62,-12.82 1510.25,-13.63 1506.93,-14.59"/>
<polygon fill="black" stroke="black" points="1505.66,-11.32 1497.26,-17.77 1507.85,-17.97 1505.66,-11.32"/>
<text text-anchor="middle" x="1524.9" y="-15.05" font-family="Helvetica,sans-Serif" font-size="9.00">λ</text>
</g>
<!-- q1&#45;&gt;q0 -->
<g id="edge3" class="edge">
<title>q1&#45;&gt;q0</title>
<path fill="none" stroke="black" stroke-dasharray="5,2" d="M142.06,-18.52C136.14,-15.99 129.24,-13.51 122.68,-12.25 110.46,-9.9 106.9,-9.9 94.68,-12.25 91.4,-12.88 88.04,-13.82 84.75,-14.91"/>
<polygon fill="black" stroke="black" points="83.4,-11.68 75.3,-18.52 85.89,-18.22 83.4,-11.68"/>
<text text-anchor="middle" x="108.68" y="-15.05" font-family="Helvetica,sans-Serif" font-size="9.00">λ</text>
</g>
<!-- q2 -->
<g id="node5" class="node">
<title>q2</title>
<ellipse fill="none" stroke="black" cx="236.8" cy="-26.25" rx="18.08" ry="18.08"/>
<text text-anchor="middle" x="236.8" y="-23.45" font-family="Helvetica,sans-Serif" font-size="11.00">q2</text>
</g>
<!-- q1&#45;&gt;q2 -->
<g id="edge4" class="edge">
<title>q1&#45;&gt;q2</title>
<path fill="none" stroke="black" stroke-dasharray="5,2" d="M176.98,-26.25C186.23,-26.25 197.83,-26.25 208.28,-26.25"/>
<polygon fill="black" stroke="black" points="208.61,-29.75 218.61,-26.25 208.61,-22.75 208.61,-29.75"/>
<text text-anchor="middle" x="197.76" y="-29.05" font-family="Helvetica,sans-Serif" font-size="9.00">λ</text>
</g>
<!-- q3 -->
<g id="node6" class="node">
<title>q3</title>
<ellipse fill="none" stroke="black" cx="345.88" cy="-26.25" rx="18.08" ry="18.08"/>
<text text-anchor="middle" x="345.88" y="-23.45" font-family="Helvetica,sans-Serif" font-size="11.00">q3</text>
</g>
<!-- q2&#45;&gt;q3 -->
<g id="edge5" class="edge">
<title>q2&#45;&gt;q3</title>
<path fill="none" stroke="black" d="M255,-26.25C271.87,-26.25 297.83,-26.25 317.52,-26.25"/>
<polygon fill="black" stroke="black" points="317.72,-29.75 327.72,-26.25 317.72,-22.75 317.72,-29.75"/>
<text text-anchor="middle" x="291.34" y="-39.05" font-family="Helvetica,sans-Serif" font-size="9.00">BASH</text>
<text text-anchor="middle" x="291.34" y="-29.05" font-family="Helvetica,sans-Serif" font-size="9.00">PYTHON</text>
</g>
<!-- q3&#45;&gt;q2 -->
<g id="edge6" class="edge">
<title>q3&#45;&gt;q2</title>
<path fill="none" stroke="black" stroke-dasharray="5,2" d="M329.22,-18.52C323.3,-15.99 316.4,-13.51 309.84,-12.25 293.69,-9.14 288.99,-9.14 272.84,-12.25 269.56,-12.88 266.2,-13.82 262.91,-14.91"/>
<polygon fill="black" stroke="black" points="261.56,-11.68 253.46,-18.52 264.05,-18.22 261.56,-11.68"/>
<text text-anchor="middle" x="291.34" y="-15.05" font-family="Helvetica,sans-Serif" font-size="9.00">λ</text>
</g>
<!-- q4 -->
<g id="node7" class="node">
<title>q4</title>
<ellipse fill="none" stroke="black" cx="423.96" cy="-26.25" rx="18.08" ry="18.08"/>
<text text-anchor="middle" x="423.96" y="-23.45" font-family="Helvetica,sans-Serif" font-size="11.00">q4</text>
</g>
<!-- q3&#45;&gt;q4 -->
<g id="edge7" class="edge">
<title>q3&#45;&gt;q4</title>
<path fill="none" stroke="black" stroke-dasharray="5,2" d="M364.14,-26.25C373.39,-26.25 384.99,-26.25 395.44,-26.25"/>
<polygon fill="black" stroke="black" points="395.77,-29.75 405.77,-26.25 395.77,-22.75 395.77,-29.75"/>
<text text-anchor="middle" x="384.92" y="-29.05" font-family="Helvetica,sans-Serif" font-size="9.00">λ</text>
</g>
<!-- q5 -->
<g id="node8" class="node">
<title>q5</title>
<ellipse fill="none" stroke="black" cx="534.04" cy="-26.25" rx="18.08" ry="18.08"/>
<text text-anchor="middle" x="534.04" y="-23.45" font-family="Helvetica,sans-Serif" font-size="11.00">q5</text>
</g>
<!-- q4&#45;&gt;q5 -->
<g id="edge8" class="edge">
<title>q4&#45;&gt;q5</title>
<path fill="none" stroke="black" d="M442.33,-26.25C459.42,-26.25 485.79,-26.25 505.7,-26.25"/>
<polygon fill="black" stroke="black" points="505.72,-29.75 515.72,-26.25 505.72,-22.75 505.72,-29.75"/>
<text text-anchor="middle" x="479" y="-29.05" font-family="Helvetica,sans-Serif" font-size="9.00">DOCKER</text>
</g>
<!-- q5&#45;&gt;q4 -->
<g id="edge9" class="edge">
<title>q5&#45;&gt;q4</title>
<path fill="none" stroke="black" stroke-dasharray="5,2" d="M517.38,-18.52C511.46,-15.99 504.56,-13.51 498,-12.25 481.42,-9.06 476.59,-9.06 460,-12.25 456.72,-12.88 453.36,-13.82 450.07,-14.91"/>
<polygon fill="black" stroke="black" points="448.72,-11.68 440.62,-18.52 451.21,-18.22 448.72,-11.68"/>
<text text-anchor="middle" x="479" y="-15.05" font-family="Helvetica,sans-Serif" font-size="9.00">λ</text>
</g>
<!-- q6 -->
<g id="node9" class="node">
<title>q6</title>
<ellipse fill="none" stroke="black" cx="612.12" cy="-26.25" rx="18.08" ry="18.08"/>
<text text-anchor="middle" x="612.12" y="-23.45" font-family="Helvetica,sans-Serif" font-size="11.00">q6</text>
</g>
<!-- q5&#45;&gt;q6 -->
<g id="edge10" class="edge">
<title>q5&#45;&gt;q6</title>
<path fill="none" stroke="black" stroke-dasharray="5,2" d="M552.31,-26.25C561.55,-26.25 573.15,-26.25 583.6,-26.25"/>
<polygon fill="black" stroke="black" points="583.93,-29.75 593.93,-26.25 583.93,-22.75 583.93,-29.75"/>
<text text-anchor="middle" x="573.08" y="-29.05" font-family="Helvetica,sans-Serif" font-size="9.00">λ</text>
</g>
<!-- q7 -->
<g id="node10" class="node">
<title>q7</title>
<ellipse fill="none" stroke="black" cx="745.2" cy="-26.25" rx="18.08" ry="18.08"/>
<text text-anchor="middle" x="745.2" y="-23.45" font-family="Helvetica,sans-Serif" font-size="11.00">q7</text>
</g>
<!-- q6&#45;&gt;q7 -->
<g id="edge11" class="edge">
<title>q6&#45;&gt;q7</title>
<path fill="none" stroke="black" d="M630.26,-26.25C652.24,-26.25 690.63,-26.25 716.72,-26.25"/>
<polygon fill="black" stroke="black" points="717.06,-29.75 727.06,-26.25 717.06,-22.75 717.06,-29.75"/>
<text text-anchor="middle" x="678.66" y="-29.05" font-family="Helvetica,sans-Serif" font-size="9.00">KUBERNETES</text>
</g>
<!-- q7&#45;&gt;q6 -->
<g id="edge12" class="edge">
<title>q7&#45;&gt;q6</title>
<path fill="none" stroke="black" stroke-dasharray="5,2" d="M728.54,-18.52C722.62,-15.99 715.72,-13.51 709.16,-12.25 682.54,-7.13 674.78,-7.13 648.16,-12.25 644.88,-12.88 641.52,-13.82 638.23,-14.91"/>
<polygon fill="black" stroke="black" points="636.88,-11.68 628.78,-18.52 639.37,-18.22 636.88,-11.68"/>
<text text-anchor="middle" x="678.66" y="-15.05" font-family="Helvetica,sans-Serif" font-size="9.00">λ</text>
</g>
<!-- q8 -->
<g id="node11" class="node">
<title>q8</title>
<ellipse fill="none" stroke="black" cx="823.28" cy="-26.25" rx="18.08" ry="18.08"/>
<text text-anchor="middle" x="823.28" y="-23.45" font-family="Helvetica,sans-Serif" font-size="11.00">q8</text>
</g>
<!-- q7&#45;&gt;q8 -->
<g id="edge13" class="edge">
<title>q7&#45;&gt;q8</title>
<path fill="none" stroke="black" stroke-dasharray="5,2" d="M763.47,-26.25C772.71,-26.25 784.31,-26.25 794.76,-26.25"/>
<polygon fill="black" stroke="black" points="795.09,-29.75 805.09,-26.25 795.09,-22.75 795.09,-29.75"/>
<text text-anchor="middle" x="784.24" y="-29.05" font-family="Helvetica,sans-Serif" font-size="9.00">λ</text>
</g>
<!-- q9 -->
<g id="node12" class="node">
<title>q9</title>
<ellipse fill="none" stroke="black" cx="974.36" cy="-26.25" rx="18.08" ry="18.08"/>
<text text-anchor="middle" x="974.36" y="-23.45" font-family="Helvetica,sans-Serif" font-size="11.00">q9</text>
</g>
<!-- q8&#45;&gt;q9 -->
<g id="edge14" class="edge">
<title>q8&#45;&gt;q9</title>
<path fill="none" stroke="black" d="M841.38,-26.25C866.86,-26.25 915.05,-26.25 945.61,-26.25"/>
<polygon fill="black" stroke="black" points="946,-29.75 956,-26.25 946,-22.75 946,-29.75"/>
<text text-anchor="middle" x="898.82" y="-49.05" font-family="Helvetica,sans-Serif" font-size="9.00">JENKINS</text>
<text text-anchor="middle" x="898.82" y="-39.05" font-family="Helvetica,sans-Serif" font-size="9.00">GITHUB_ACTIONS</text>
<text text-anchor="middle" x="898.82" y="-29.05" font-family="Helvetica,sans-Serif" font-size="9.00">GITLAB_CI</text>
</g>
<!-- q9&#45;&gt;q8 -->
<g id="edge15" class="edge">
<title>q9&#45;&gt;q8</title>
<path fill="none" stroke="black" stroke-dasharray="5,2" d="M957.7,-18.52C951.78,-15.99 944.88,-13.51 938.32,-12.25 903.84,-5.62 893.8,-5.62 859.32,-12.25 856.04,-12.88 852.68,-13.82 849.39,-14.91"/>
<polygon fill="black" stroke="black" points="848.04,-11.68 839.94,-18.52 850.53,-18.22 848.04,-11.68"/>
<text text-anchor="middle" x="898.82" y="-15.05" font-family="Helvetica,sans-Serif" font-size="9.00">λ</text>
</g>
<!-- q10 -->
<g id="node13" class="node">
<title>q10</title>
<ellipse fill="none" stroke="black" cx="1056.65" cy="-26.25" rx="22.5" ry="22.5"/>
<text text-anchor="middle" x="1056.65" y="-23.45" font-family="Helvetica,sans-Serif" font-size="11.00">q10</text>
</g>
<!-- q9&#45;&gt;q10 -->
<g id="edge16" class="edge">
<title>q9&#45;&gt;q10</title>
<path fill="none" stroke="black" stroke-dasharray="5,2" d="M992.78,-26.25C1001.92,-26.25 1013.39,-26.25 1024.02,-26.25"/>
<polygon fill="black" stroke="black" points="1024.26,-29.75 1034.26,-26.25 1024.26,-22.75 1024.26,-29.75"/>
<text text-anchor="middle" x="1013.4" y="-29.05" font-family="Helvetica,sans-Serif" font-size="9.00">λ</text>
</g>
<!-- q11 -->
<g id="node14" class="node">
<title>q11</title>
<ellipse fill="none" stroke="black" cx="1168.15" cy="-26.25" rx="22.5" ry="22.5"/>
<text text-anchor="middle" x="1168.15" y="-23.45" font-family="Helvetica,sans-Serif" font-size="11.00">q11</text>
</g>
<!-- q10&#45;&gt;q11 -->
<g id="edge17" class="edge">
<title>q10&#45;&gt;q11</title>
<path fill="none" stroke="black" d="M1079.02,-26.25C1095.15,-26.25 1117.53,-26.25 1135.7,-26.25"/>
<polygon fill="black" stroke="black" points="1135.83,-29.75 1145.83,-26.25 1135.83,-22.75 1135.83,-29.75"/>
<text text-anchor="middle" x="1112.4" y="-49.05" font-family="Helvetica,sans-Serif" font-size="9.00">AWS</text>
<text text-anchor="middle" x="1112.4" y="-39.05" font-family="Helvetica,sans-Serif" font-size="9.00">AZURE</text>
<text text-anchor="middle" x="1112.4" y="-29.05" font-family="Helvetica,sans-Serif" font-size="9.00">GCP</text>
</g>
<!-- q11&#45;&gt;q10 -->
<g id="edge18" class="edge">
<title>q11&#45;&gt;q10</title>
<path fill="none" stroke="black" stroke-dasharray="5,2" d="M1147.54,-17.77C1141.37,-15.51 1134.46,-13.38 1127.9,-12.25 1114.33,-9.9 1110.48,-9.9 1096.9,-12.25 1093.62,-12.82 1090.25,-13.63 1086.94,-14.59"/>
<polygon fill="black" stroke="black" points="1085.67,-11.32 1077.26,-17.77 1087.86,-17.97 1085.67,-11.32"/>
<text text-anchor="middle" x="1112.4" y="-15.05" font-family="Helvetica,sans-Serif" font-size="9.00">λ</text>
</g>
<!-- q12 -->
<g id="node15" class="node">
<title>q12</title>
<ellipse fill="none" stroke="black" cx="1254.65" cy="-26.25" rx="22.5" ry="22.5"/>
<text text-anchor="middle" x="1254.65" y="-23.45" font-family="Helvetica,sans-Serif" font-size="11.00">q12</text>
</g>
<!-- q11&#45;&gt;q12 -->
<g id="edge19" class="edge">
<title>q11&#45;&gt;q12</title>
<path fill="none" stroke="black" stroke-dasharray="5,2" d="M1190.47,-26.25C1200.08,-26.25 1211.62,-26.25 1222.19,-26.25"/>
<polygon fill="black" stroke="black" points="1222.33,-29.75 1232.33,-26.25 1222.33,-22.75 1222.33,-29.75"/>
<text text-anchor="middle" x="1211.4" y="-29.05" font-family="Helvetica,sans-Serif" font-size="9.00">λ</text>
</g>
<!-- q13 -->
<g id="node16" class="node">
<title>q13</title>
<ellipse fill="none" stroke="black" cx="1390.15" cy="-26.25" rx="22.5" ry="22.5"/>
<text text-anchor="middle" x="1390.15" y="-23.45" font-family="Helvetica,sans-Serif" font-size="11.00">q13</text>
</g>
<!-- q12&#45;&gt;q13 -->
<g id="edge20" class="edge">
<title>q12&#45;&gt;q13</title>
<path fill="none" stroke="black" d="M1277.1,-26.25C1298.9,-26.25 1332.9,-26.25 1357.73,-26.25"/>
<polygon fill="black" stroke="black" points="1357.75,-29.75 1367.75,-26.25 1357.75,-22.75 1357.75,-29.75"/>
<text text-anchor="middle" x="1322.4" y="-49.05" font-family="Helvetica,sans-Serif" font-size="9.00">TERRAFORM</text>
<text text-anchor="middle" x="1322.4" y="-39.05" font-family="Helvetica,sans-Serif" font-size="9.00">ANSIBLE</text>
<text text-anchor="middle" x="1322.4" y="-29.05" font-family="Helvetica,sans-Serif" font-size="9.00">λ</text>
</g>
<!-- q13&#45;&gt;q12 -->
<g id="edge21" class="edge">
<title>q13&#45;&gt;q12</title>
<path fill="none" stroke="black" stroke-dasharray="5,2" d="M1369.54,-17.77C1363.37,-15.51 1356.46,-13.38 1349.9,-12.25 1325.81,-8.08 1318.99,-8.08 1294.9,-12.25 1291.62,-12.82 1288.25,-13.63 1284.93,-14.59"/>
<polygon fill="black" stroke="black" points="1283.67,-11.32 1275.26,-17.77 1285.85,-17.97 1283.67,-11.32"/>
<text text-anchor="middle" x="1322.4" y="-15.05" font-family="Helvetica,sans-Serif" font-size="9.00">λ</text>
</g>
<!-- q13&#45;&gt;q14 -->
<g id="edge22" class="edge">
<title>q13&#45;&gt;q14</title>
<path fill="none" stroke="black" stroke-dasharray="5,2" d="M1412.47,-26.25C1422.08,-26.25 1433.62,-26.25 1444.19,-26.25"/>
<polygon fill="black" stroke="black" points="1444.33,-29.75 1454.33,-26.25 1444.33,-22.75 1444.33,-29.75"/>
<text text-anchor="middle" x="1433.4" y="-29.05" font-family="Helvetica,sans-Serif" font-size="9.00">λ</text>
</g>
<!-- q14&#45;&gt;q15 -->
<g id="edge23" class="edge">
<title>q14&#45;&gt;q15</title>
<path fill="none" stroke="black" d="M1499.02,-26.25C1511.1,-26.25 1526.53,-26.25 1540.4,-26.25"/>
<polygon fill="black" stroke="black" points="1540.63,-29.75 1550.63,-26.25 1540.63,-22.75 1540.63,-29.75"/>
<text text-anchor="middle" x="1524.9" y="-29.05" font-family="Helvetica,sans-Serif" font-size="9.00">GIT</text>
</g>
</g>
</svg>
