<?xml version="1.0" encoding="UTF-8" standalone="no"?>
<!DOCTYPE svg PUBLIC "-//W3C//DTD SVG 1.1//EN"
 "http://www.w3.org/Graphics/SVG/1.1/DTD/svg11.dtd">
<!-- Generated by graphviz version 2.43.0 (0)
 -->
<!-- Title: MACHINE_LEARNING_ENGINEER_NFA Pages: 1 -->
<svg width="1632pt" height="219pt"
 viewBox="0.00 0.00 1632.16 219.04" xmlns="http://www.w3.org/2000/svg" xmlns:xlink="http://www.w3.org/1999/xlink">
<g id="graph0" class="graph" transform="scale(1 1) rotate(0) translate(4 215.04)">
<title>MACHINE_LEARNING_ENGINEER_NFA</title>
<polygon fill="white" stroke="transparent" points="-4,4 -4,-215.04 1628.16,-215.04 1628.16,4 -4,4"/>
<!-- start -->
<g id="node1" class="node">
<title>start</title>
<ellipse fill="black" stroke="black" cx="1.8" cy="-90.04" rx="1.8" ry="1.8"/>
</g>
<!-- q0 -->
<g id="node2" class="node">
<title>q0</title>
<ellipse fill="none" stroke="black" cx="58.64" cy="-90.04" rx="18.08" ry="18.08"/>
<text text-anchor="middle" x="58.64" y="-87.24" font-family="Helvetica,sans-Serif" font-size="11.00">q0</text>
</g>
<!-- start&#45;&gt;q0 -->
<g id="edge1" class="edge">
<title>start&#45;&gt;q0</title>
<path fill="none" stroke="black" d="M3.75,-90.04C7.06,-90.04 18.5,-90.04 29.99,-90.04"/>
<polygon fill="black" stroke="black" points="30.33,-93.54 40.33,-90.04 30.33,-86.54 30.33,-93.54"/>
</g>
<!-- q1 -->
<g id="node4" class="node">
<title>q1</title>
<ellipse fill="none" stroke="black" cx="277.72" cy="-104.04" rx="18.08" ry="18.08"/>
<text text-anchor="middle" x="277.72" y="-101.24" font-family="Helvetica,sans-Serif" font-size="11.00">q1</text>
</g>
<!-- q0&#45;&gt;q1 -->
<g id="edge2" class="edge">
<title>q0&#45;&gt;q1</title>
<path fill="none" stroke="black" d="M76.48,-93.45C94.5,-96.92 123.97,-102.05 149.68,-104.04 183.93,-106.69 223.53,-106.11 249.29,-105.26"/>
<polygon fill="black" stroke="black" points="249.56,-108.75 259.43,-104.88 249.3,-101.75 249.56,-108.75"/>
<text text-anchor="middle" x="168.18" y="-107.84" font-family="Helvetica,sans-Serif" font-size="9.00">PYTHON</text>
</g>
<!-- p1 -->
<g id="node5" class="node">
<title>p1</title>
<ellipse fill="none" stroke="black" cx="168.18" cy="-49.04" rx="18.08" ry="18.08"/>
<text text-anchor="middle" x="168.18" y="-46.24" font-family="Helvetica,sans-Serif" font-size="11.00">p1</text>
</g>
<!-- q0&#45;&gt;p1 -->
<g id="edge3" class="edge">
<title>q0&#45;&gt;p1</title>
<path fill="none" stroke="black" d="M75.97,-83.81C93.37,-77.18 121.13,-66.6 141.46,-58.84"/>
<polygon fill="black" stroke="black" points="142.95,-62.02 151.05,-55.19 140.46,-55.48 142.95,-62.02"/>
<text text-anchor="middle" x="113.18" y="-77.84" font-family="Helvetica,sans-Serif" font-size="9.00">PYTHON</text>
</g>
<!-- q6 -->
<g id="node3" class="node">
<title>q6</title>
<ellipse fill="none" stroke="black" cx="1602.12" cy="-120.04" rx="18.07" ry="18.07"/>
<ellipse fill="none" stroke="black" cx="1602.12" cy="-120.04" rx="22.08" ry="22.08"/>
<text text-anchor="middle" x="1602.12" y="-117.24" font-family="Helvetica,sans-Serif" font-size="11.00">q6</text>
</g>
<!-- q2 -->
<g id="node6" class="node">
<title>q2</title>
<ellipse fill="none" stroke="black" cx="496.8" cy="-95.04" rx="18.08" ry="18.08"/>
<text text-anchor="middle" x="496.8" y="-92.24" font-family="Helvetica,sans-Serif" font-size="11.00">q2</text>
</g>
<!-- q1&#45;&gt;q2 -->
<g id="edge4" class="edge">
<title>q1&#45;&gt;q2</title>
<path fill="none" stroke="black" d="M295.9,-104C310.5,-103.91 332.01,-103.68 350.76,-103.04 399.69,-101.37 411.88,-99.77 460.76,-97.04 463.32,-96.9 465.98,-96.75 468.64,-96.6"/>
<polygon fill="black" stroke="black" points="468.91,-100.09 478.69,-96.03 468.51,-93.1 468.91,-100.09"/>
<text text-anchor="middle" x="387.26" y="-114.84" font-family="Helvetica,sans-Serif" font-size="9.00">PANDAS</text>
<text text-anchor="middle" x="387.26" y="-104.84" font-family="Helvetica,sans-Serif" font-size="9.00">NUMPY</text>
</g>
<!-- p2 -->
<g id="node7" class="node">
<title>p2</title>
<ellipse fill="none" stroke="black" cx="387.26" cy="-35.04" rx="18.08" ry="18.08"/>
<text text-anchor="middle" x="387.26" y="-32.24" font-family="Helvetica,sans-Serif" font-size="11.00">p2</text>
</g>
<!-- q1&#45;&gt;p2 -->
<g id="edge5" class="edge">
<title>q1&#45;&gt;p2</title>
<path fill="none" stroke="black" d="M293.22,-94.73C311.18,-83.21 341.99,-63.44 363.21,-49.83"/>
<polygon fill="black" stroke="black" points="365.12,-52.76 371.64,-44.42 361.34,-46.87 365.12,-52.76"/>
<text text-anchor="middle" x="332.26" y="-91.84" font-family="Helvetica,sans-Serif" font-size="9.00">PANDAS</text>
<text text-anchor="middle" x="332.26" y="-81.84" font-family="Helvetica,sans-Serif" font-size="9.00">NUMPY</text>
</g>
<!-- p1&#45;&gt;q1 -->
<g id="edge17" class="edge">
<title>p1&#45;&gt;q1</title>
<path fill="none" stroke="black" d="M184.59,-56.92C202.24,-65.95 231.39,-80.86 252.17,-91.49"/>
<polygon fill="black" stroke="black" points="250.84,-94.74 261.34,-96.17 254.03,-88.51 250.84,-94.74"/>
<text text-anchor="middle" x="223.18" y="-86.84" font-family="Helvetica,sans-Serif" font-size="9.00">PYTHON</text>
</g>
<!-- p1&#45;&gt;p1 -->
<g id="edge16" class="edge">
<title>p1&#45;&gt;p1</title>
<path fill="none" stroke="black" d="M158.95,-64.6C156.35,-74.98 159.43,-85.08 168.18,-85.08 173.93,-85.08 177.23,-80.73 178.08,-74.8"/>
<polygon fill="black" stroke="black" points="181.56,-74.35 177.41,-64.6 174.57,-74.81 181.56,-74.35"/>
<text text-anchor="middle" x="168.18" y="-87.88" font-family="Helvetica,sans-Serif" font-size="9.00">PYTHON</text>
</g>
<!-- q3 -->
<g id="node8" class="node">
<title>q3</title>
<ellipse fill="none" stroke="black" cx="796.88" cy="-84.04" rx="18.08" ry="18.08"/>
<text text-anchor="middle" x="796.88" y="-81.24" font-family="Helvetica,sans-Serif" font-size="11.00">q3</text>
</g>
<!-- q2&#45;&gt;q3 -->
<g id="edge6" class="edge">
<title>q2&#45;&gt;q3</title>
<path fill="none" stroke="black" d="M513.91,-101.8C519.76,-103.92 526.5,-105.98 532.84,-107.04 577.37,-114.45 716.38,-113.51 760.84,-102.04 764.57,-101.08 768.35,-99.67 771.99,-98.05"/>
<polygon fill="black" stroke="black" points="773.75,-101.09 781.12,-93.47 770.61,-94.83 773.75,-101.09"/>
<text text-anchor="middle" x="646.84" y="-133.84" font-family="Helvetica,sans-Serif" font-size="9.00">SCIKIT_LEARN</text>
<text text-anchor="middle" x="646.84" y="-123.84" font-family="Helvetica,sans-Serif" font-size="9.00">TENSORFLOW</text>
<text text-anchor="middle" x="646.84" y="-113.84" font-family="Helvetica,sans-Serif" font-size="9.00">PYTORCH</text>
</g>
<!-- p3 -->
<g id="node9" class="node">
<title>p3</title>
<ellipse fill="none" stroke="black" cx="646.84" cy="-19.04" rx="18.08" ry="18.08"/>
<text text-anchor="middle" x="646.84" y="-16.24" font-family="Helvetica,sans-Serif" font-size="11.00">p3</text>
</g>
<!-- q2&#45;&gt;p3 -->
<g id="edge7" class="edge">
<title>q2&#45;&gt;p3</title>
<path fill="none" stroke="black" d="M513.09,-87.19C538.68,-74.05 590.44,-47.48 621.22,-31.68"/>
<polygon fill="black" stroke="black" points="623.12,-34.64 630.42,-26.96 619.92,-28.41 623.12,-34.64"/>
<text text-anchor="middle" x="564.84" y="-98.84" font-family="Helvetica,sans-Serif" font-size="9.00">SCIKIT_LEARN</text>
<text text-anchor="middle" x="564.84" y="-88.84" font-family="Helvetica,sans-Serif" font-size="9.00">TENSORFLOW</text>
<text text-anchor="middle" x="564.84" y="-78.84" font-family="Helvetica,sans-Serif" font-size="9.00">PYTORCH</text>
</g>
<!-- p2&#45;&gt;q2 -->
<g id="edge19" class="edge">
<title>p2&#45;&gt;q2</title>
<path fill="none" stroke="black" d="M403.67,-43.64C421.5,-53.58 451.07,-70.08 471.89,-81.7"/>
<polygon fill="black" stroke="black" points="470.33,-84.84 480.77,-86.65 473.74,-78.72 470.33,-84.84"/>
<text text-anchor="middle" x="442.26" y="-85.84" font-family="Helvetica,sans-Serif" font-size="9.00">PANDAS</text>
<text text-anchor="middle" x="442.26" y="-75.84" font-family="Helvetica,sans-Serif" font-size="9.00">NUMPY</text>
</g>
<!-- p2&#45;&gt;p2 -->
<g id="edge18" class="edge">
<title>p2&#45;&gt;p2</title>
<path fill="none" stroke="black" d="M378.03,-50.6C375.43,-60.98 378.51,-71.08 387.26,-71.08 393.01,-71.08 396.31,-66.73 397.16,-60.8"/>
<polygon fill="black" stroke="black" points="400.64,-60.35 396.49,-50.6 393.65,-60.81 400.64,-60.35"/>
<text text-anchor="middle" x="387.26" y="-83.88" font-family="Helvetica,sans-Serif" font-size="9.00">PANDAS</text>
<text text-anchor="middle" x="387.26" y="-73.88" font-family="Helvetica,sans-Serif" font-size="9.00">NUMPY</text>
</g>
<!-- q4 -->
<g id="node10" class="node">
<title>q4</title>
<ellipse fill="none" stroke="black" cx="1118.42" cy="-79.04" rx="18.08" ry="18.08"/>
<text text-anchor="middle" x="1118.42" y="-76.24" font-family="Helvetica,sans-Serif" font-size="11.00">q4</text>
</g>
<!-- q3&#45;&gt;q4 -->
<g id="edge8" class="edge">
<title>q3&#45;&gt;q4</title>
<path fill="none" stroke="black" d="M814.92,-81.42C838.14,-78 881.06,-72.18 917.92,-70.04 979.35,-66.47 1051.49,-72.18 1089.97,-76.01"/>
<polygon fill="black" stroke="black" points="1090.03,-79.54 1100.33,-77.08 1090.75,-72.57 1090.03,-79.54"/>
<text text-anchor="middle" x="951.42" y="-72.84" font-family="Helvetica,sans-Serif" font-size="9.00">ML_MODELING</text>
</g>
<!-- p4 -->
<g id="node11" class="node">
<title>p4</title>
<ellipse fill="none" stroke="black" cx="951.42" cy="-107.04" rx="18.08" ry="18.08"/>
<text text-anchor="middle" x="951.42" y="-104.24" font-family="Helvetica,sans-Serif" font-size="11.00">p4</text>
</g>
<!-- q3&#45;&gt;p4 -->
<g id="edge9" class="edge">
<title>q3&#45;&gt;p4</title>
<path fill="none" stroke="black" d="M814.79,-86.59C841.02,-90.54 891.76,-98.19 923.2,-102.94"/>
<polygon fill="black" stroke="black" points="923.03,-106.45 933.44,-104.48 924.07,-99.53 923.03,-106.45"/>
<text text-anchor="middle" x="866.42" y="-100.84" font-family="Helvetica,sans-Serif" font-size="9.00">ML_MODELING</text>
</g>
<!-- q5 -->
<g id="node12" class="node">
<title>q5</title>
<ellipse fill="none" stroke="black" cx="1421.96" cy="-120.04" rx="18.08" ry="18.08"/>
<text text-anchor="middle" x="1421.96" y="-117.24" font-family="Helvetica,sans-Serif" font-size="11.00">q5</text>
</g>
<!-- q3&#45;&gt;q5 -->
<g id="edge10" class="edge">
<title>q3&#45;&gt;q5</title>
<path fill="none" stroke="black" d="M808.95,-97.53C832.17,-124.18 888.91,-181.04 950.42,-181.04 950.42,-181.04 950.42,-181.04 1277.42,-181.04 1323.4,-181.04 1371.54,-154.2 1398.74,-136.13"/>
<polygon fill="black" stroke="black" points="1400.85,-138.92 1407.13,-130.39 1396.9,-133.15 1400.85,-138.92"/>
<text text-anchor="middle" x="1118.42" y="-203.84" font-family="Helvetica,sans-Serif" font-size="9.00">SQL</text>
<text text-anchor="middle" x="1118.42" y="-193.84" font-family="Helvetica,sans-Serif" font-size="9.00">POSTGRESQL</text>
<text text-anchor="middle" x="1118.42" y="-183.84" font-family="Helvetica,sans-Serif" font-size="9.00">MYSQL</text>
</g>
<!-- p5 -->
<g id="node13" class="node">
<title>p5</title>
<ellipse fill="none" stroke="black" cx="1276.42" cy="-18.04" rx="18.08" ry="18.08"/>
<text text-anchor="middle" x="1276.42" y="-15.24" font-family="Helvetica,sans-Serif" font-size="11.00">p5</text>
</g>
<!-- q3&#45;&gt;p5 -->
<g id="edge11" class="edge">
<title>q3&#45;&gt;p5</title>
<path fill="none" stroke="black" d="M813.21,-75.51C819.21,-72.46 826.24,-69.24 832.92,-67.04 983.41,-17.36 1176.68,-15.83 1247.68,-17.19"/>
<polygon fill="black" stroke="black" points="1247.92,-20.69 1258,-17.42 1248.08,-13.69 1247.92,-20.69"/>
<text text-anchor="middle" x="1036.42" y="-52.84" font-family="Helvetica,sans-Serif" font-size="9.00">SQL</text>
<text text-anchor="middle" x="1036.42" y="-42.84" font-family="Helvetica,sans-Serif" font-size="9.00">POSTGRESQL</text>
<text text-anchor="middle" x="1036.42" y="-32.84" font-family="Helvetica,sans-Serif" font-size="9.00">MYSQL</text>
</g>
<!-- p3&#45;&gt;q3 -->
<g id="edge21" class="edge">
<title>p3&#45;&gt;q3</title>
<path fill="none" stroke="black" d="M663.68,-26C689.39,-37.29 740.4,-59.68 771,-73.11"/>
<polygon fill="black" stroke="black" points="769.59,-76.32 780.15,-77.13 772.4,-69.91 769.59,-76.32"/>
<text text-anchor="middle" x="728.84" y="-90.84" font-family="Helvetica,sans-Serif" font-size="9.00">SCIKIT_LEARN</text>
<text text-anchor="middle" x="728.84" y="-80.84" font-family="Helvetica,sans-Serif" font-size="9.00">TENSORFLOW</text>
<text text-anchor="middle" x="728.84" y="-70.84" font-family="Helvetica,sans-Serif" font-size="9.00">PYTORCH</text>
</g>
<!-- p3&#45;&gt;p3 -->
<g id="edge20" class="edge">
<title>p3&#45;&gt;p3</title>
<path fill="none" stroke="black" d="M634,-31.97C628.15,-43.2 632.43,-55.08 646.84,-55.08 656.98,-55.08 662.1,-49.21 662.21,-41.82"/>
<polygon fill="black" stroke="black" points="665.56,-40.78 659.68,-31.97 658.78,-42.53 665.56,-40.78"/>
<text text-anchor="middle" x="646.84" y="-77.88" font-family="Helvetica,sans-Serif" font-size="9.00">SCIKIT_LEARN</text>
<text text-anchor="middle" x="646.84" y="-67.88" font-family="Helvetica,sans-Serif" font-size="9.00">TENSORFLOW</text>
<text text-anchor="middle" x="646.84" y="-57.88" font-family="Helvetica,sans-Serif" font-size="9.00">PYTORCH</text>
</g>
<!-- q4&#45;&gt;q5 -->
<g id="edge12" class="edge">
<title>q4&#45;&gt;q5</title>
<path fill="none" stroke="black" d="M1135.94,-84.71C1144.99,-87.61 1156.47,-90.96 1166.92,-93.04 1248.47,-109.25 1346.82,-116.2 1393.63,-118.76"/>
<polygon fill="black" stroke="black" points="1393.69,-122.26 1403.86,-119.29 1394.05,-115.27 1393.69,-122.26"/>
<text text-anchor="middle" x="1276.42" y="-134.84" font-family="Helvetica,sans-Serif" font-size="9.00">SQL</text>
<text text-anchor="middle" x="1276.42" y="-124.84" font-family="Helvetica,sans-Serif" font-size="9.00">POSTGRESQL</text>
<text text-anchor="middle" x="1276.42" y="-114.84" font-family="Helvetica,sans-Serif" font-size="9.00">MYSQL</text>
</g>
<!-- q4&#45;&gt;p5 -->
<g id="edge13" class="edge">
<title>q4&#45;&gt;p5</title>
<path fill="none" stroke="black" d="M1135.53,-72.74C1162.5,-62.19 1217.04,-40.87 1249.48,-28.19"/>
<polygon fill="black" stroke="black" points="1251.13,-31.3 1259.17,-24.4 1248.58,-24.78 1251.13,-31.3"/>
<text text-anchor="middle" x="1197.42" y="-81.84" font-family="Helvetica,sans-Serif" font-size="9.00">SQL</text>
<text text-anchor="middle" x="1197.42" y="-71.84" font-family="Helvetica,sans-Serif" font-size="9.00">POSTGRESQL</text>
<text text-anchor="middle" x="1197.42" y="-61.84" font-family="Helvetica,sans-Serif" font-size="9.00">MYSQL</text>
</g>
<!-- p4&#45;&gt;q4 -->
<g id="edge23" class="edge">
<title>p4&#45;&gt;q4</title>
<path fill="none" stroke="black" d="M969.46,-104.15C997.99,-99.31 1055.67,-89.52 1089.98,-83.7"/>
<polygon fill="black" stroke="black" points="1090.96,-87.08 1100.23,-81.96 1089.79,-80.18 1090.96,-87.08"/>
<text text-anchor="middle" x="1036.42" y="-99.84" font-family="Helvetica,sans-Serif" font-size="9.00">ML_MODELING</text>
</g>
<!-- p4&#45;&gt;p4 -->
<g id="edge22" class="edge">
<title>p4&#45;&gt;p4</title>
<path fill="none" stroke="black" d="M938.27,-119.97C932.27,-131.2 936.66,-143.08 951.42,-143.08 961.8,-143.08 967.05,-137.21 967.17,-129.82"/>
<polygon fill="black" stroke="black" points="970.51,-128.75 964.57,-119.97 963.74,-130.53 970.51,-128.75"/>
<text text-anchor="middle" x="951.42" y="-145.88" font-family="Helvetica,sans-Serif" font-size="9.00">ML_MODELING</text>
</g>
<!-- q5&#45;&gt;q6 -->
<g id="edge14" class="edge">
<title>q5&#45;&gt;q6</title>
<path fill="none" stroke="black" d="M1439.56,-124.38C1453.46,-127.78 1473.87,-132.22 1492,-134.04 1518.62,-136.71 1548.78,-132.27 1570.64,-127.7"/>
<polygon fill="black" stroke="black" points="1571.64,-131.06 1580.65,-125.47 1570.13,-124.22 1571.64,-131.06"/>
<text text-anchor="middle" x="1510.04" y="-136.84" font-family="Helvetica,sans-Serif" font-size="9.00">GIT</text>
</g>
<!-- p6 -->
<g id="node14" class="node">
<title>p6</title>
<ellipse fill="none" stroke="black" cx="1510.04" cy="-79.04" rx="18.08" ry="18.08"/>
<text text-anchor="middle" x="1510.04" y="-76.24" font-family="Helvetica,sans-Serif" font-size="11.00">p6</text>
</g>
<!-- q5&#45;&gt;p6 -->
<g id="edge15" class="edge">
<title>q5&#45;&gt;p6</title>
<path fill="none" stroke="black" d="M1438.75,-112.52C1451.49,-106.45 1469.64,-97.81 1484.31,-90.82"/>
<polygon fill="black" stroke="black" points="1485.83,-93.97 1493.35,-86.51 1482.82,-87.65 1485.83,-93.97"/>
<text text-anchor="middle" x="1466" y="-105.84" font-family="Helvetica,sans-Serif" font-size="9.00">GIT</text>
</g>
<!-- p5&#45;&gt;q5 -->
<g id="edge25" class="edge">
<title>p5&#45;&gt;q5</title>
<path fill="none" stroke="black" d="M1293.74,-24.29C1316.13,-33.38 1356.87,-51.84 1385.92,-76.04 1393.15,-82.06 1399.9,-89.78 1405.5,-97.06"/>
<polygon fill="black" stroke="black" points="1402.79,-99.29 1411.52,-105.29 1408.44,-95.16 1402.79,-99.29"/>
<text text-anchor="middle" x="1355.42" y="-98.84" font-family="Helvetica,sans-Serif" font-size="9.00">SQL</text>
<text text-anchor="middle" x="1355.42" y="-88.84" font-family="Helvetica,sans-Serif" font-size="9.00">POSTGRESQL</text>
<text text-anchor="middle" x="1355.42" y="-78.84" font-family="Helvetica,sans-Serif" font-size="9.00">MYSQL</text>
</g>
<!-- p5&#45;&gt;p5 -->
<g id="edge24" class="edge">
<title>p5&#45;&gt;p5</title>
<path fill="none" stroke="black" d="M1264.03,-31.35C1258.73,-42.46 1262.86,-54.08 1276.42,-54.08 1285.74,-54.08 1290.61,-48.59 1291.02,-41.55"/>
<polygon fill="black" stroke="black" points="1294.35,-40.38 1288.81,-31.35 1287.51,-41.86 1294.35,-40.38"/>
<text text-anchor="middle" x="1276.42" y="-76.88" font-family="Helvetica,sans-Serif" font-size="9.00">SQL</text>
<text text-anchor="middle" x="1276.42" y="-66.88" font-family="Helvetica,sans-Serif" font-size="9.00">POSTGRESQL</text>
<text text-anchor="middle" x="1276.42" y="-56.88" font-family="Helvetica,sans-Serif" font-size="9.00">MYSQL</text>
</g>
<!-- p6&#45;&gt;q6 -->
<g id="edge27" class="edge">
<title>p6&#45;&gt;q6</title>
<path fill="none" stroke="black" d="M1526.73,-86.18C1539.3,-91.9 1557.28,-100.08 1572.41,-106.97"/>
<polygon fill="black" stroke="black" points="1571.3,-110.31 1581.85,-111.27 1574.2,-103.94 1571.3,-110.31"/>
<text text-anchor="middle" x="1554.08" y="-103.84" font-family="Helvetica,sans-Serif" font-size="9.00">GIT</text>
</g>
<!-- p6&#45;&gt;p6 -->
<g id="edge26" class="edge">
<title>p6&#45;&gt;p6</title>
<path fill="none" stroke="black" d="M1502.31,-95.72C1500.59,-105.69 1503.17,-115.08 1510.04,-115.08 1514.45,-115.08 1517.09,-111.23 1517.96,-105.84"/>
<polygon fill="black" stroke="black" points="1521.46,-105.66 1517.78,-95.72 1514.46,-105.79 1521.46,-105.66"/>
<text text-anchor="middle" x="1510.04" y="-117.88" font-family="Helvetica,sans-Serif" font-size="9.00">GIT</text>
</g>
</g>
</svg>
