<?xml version="1.0" encoding="UTF-8" standalone="no"?>
<!DOCTYPE svg PUBLIC "-//W3C//DTD SVG 1.1//EN"
 "http://www.w3.org/Graphics/SVG/1.1/DTD/svg11.dtd">
<!-- Generated by graphviz version 2.43.0 (0)
 -->
<!-- Title: T_LANGUAGES Pages: 1 -->
<svg width="1465pt" height="424pt"
 viewBox="0.00 0.00 1465.28 424.21" xmlns="http://www.w3.org/2000/svg" xmlns:xlink="http://www.w3.org/1999/xlink">
<g id="graph0" class="graph" transform="scale(1 1) rotate(0) translate(4 420.21)">
<title>T_LANGUAGES</title>
<polygon fill="white" stroke="transparent" points="-4,4 -4,-420.21 1461.28,-420.21 1461.28,4 -4,4"/>
<!-- start -->
<g id="node1" class="node">
<title>start</title>
<ellipse fill="black" stroke="black" cx="1.8" cy="-160.6" rx="1.8" ry="1.8"/>
</g>
<!-- q0 -->
<g id="node2" class="node">
<title>q0</title>
<ellipse fill="none" stroke="black" cx="58.6" cy="-160.6" rx="18" ry="18"/>
<text text-anchor="middle" x="58.6" y="-158.1" font-family="Helvetica,sans-Serif" font-size="10.00">q0</text>
</g>
<!-- start&#45;&gt;q0 -->
<g id="edge1" class="edge">
<title>start&#45;&gt;q0</title>
<path fill="none" stroke="black" d="M3.75,-160.6C7.11,-160.6 18.87,-160.6 30.55,-160.6"/>
<polygon fill="black" stroke="black" points="30.58,-164.1 40.58,-160.6 30.58,-157.1 30.58,-164.1"/>
</g>
<!-- q1 -->
<g id="node4" class="node">
<title>q1</title>
<ellipse fill="none" stroke="black" cx="163.2" cy="-346.6" rx="18" ry="18"/>
<text text-anchor="middle" x="163.2" y="-344.1" font-family="Helvetica,sans-Serif" font-size="10.00">q1</text>
</g>
<!-- q0&#45;&gt;q1 -->
<g id="edge2" class="edge">
<title>q0&#45;&gt;q1</title>
<path fill="none" stroke="black" d="M67.24,-176.6C74.14,-190.88 84.71,-212.32 94.6,-230.6 112.04,-262.86 133.58,-299.28 147.59,-322.56"/>
<polygon fill="black" stroke="black" points="144.75,-324.64 152.92,-331.39 150.75,-321.02 144.75,-324.64"/>
<text text-anchor="middle" x="109.6" y="-284.4" font-family="Helvetica,sans-Serif" font-size="9.00">J|j : λ</text>
</g>
<!-- q12 -->
<g id="node15" class="node">
<title>q12</title>
<ellipse fill="none" stroke="black" cx="163.2" cy="-248.6" rx="20.71" ry="20.71"/>
<text text-anchor="middle" x="163.2" y="-246.1" font-family="Helvetica,sans-Serif" font-size="10.00">q12</text>
</g>
<!-- q0&#45;&gt;q12 -->
<g id="edge15" class="edge">
<title>q0&#45;&gt;q12</title>
<path fill="none" stroke="black" d="M72.5,-172.16C79.08,-178.02 87.23,-185.23 94.6,-191.6 109.18,-204.2 125.71,-218.15 138.78,-229.09"/>
<polygon fill="black" stroke="black" points="136.89,-232.08 146.81,-235.81 141.38,-226.71 136.89,-232.08"/>
<text text-anchor="middle" x="109.6" y="-219.4" font-family="Helvetica,sans-Serif" font-size="9.00">T|t : λ</text>
</g>
<!-- q23 -->
<g id="node26" class="node">
<title>q23</title>
<ellipse fill="none" stroke="black" cx="222.41" cy="-177.6" rx="20.71" ry="20.71"/>
<text text-anchor="middle" x="222.41" y="-175.1" font-family="Helvetica,sans-Serif" font-size="10.00">q23</text>
</g>
<!-- q0&#45;&gt;q23 -->
<g id="edge28" class="edge">
<title>q0&#45;&gt;q23</title>
<path fill="none" stroke="black" d="M76.61,-162.39C103.92,-165.26 157.9,-170.93 191.68,-174.48"/>
<polygon fill="black" stroke="black" points="191.57,-177.99 201.88,-175.55 192.3,-171.03 191.57,-177.99"/>
<text text-anchor="middle" x="109.6" y="-169.4" font-family="Helvetica,sans-Serif" font-size="9.00">P|p : λ</text>
</g>
<!-- q29 -->
<g id="node32" class="node">
<title>q29</title>
<ellipse fill="none" stroke="black" cx="163.2" cy="-128.6" rx="20.71" ry="20.71"/>
<text text-anchor="middle" x="163.2" y="-126.1" font-family="Helvetica,sans-Serif" font-size="10.00">q29</text>
</g>
<!-- q0&#45;&gt;q29 -->
<g id="edge36" class="edge">
<title>q0&#45;&gt;q29</title>
<path fill="none" stroke="black" d="M75.07,-153.34C81.09,-150.69 88.09,-147.8 94.6,-145.6 106.93,-141.44 120.82,-137.78 132.8,-134.93"/>
<polygon fill="black" stroke="black" points="133.78,-138.29 142.74,-132.64 132.21,-131.47 133.78,-138.29"/>
<text text-anchor="middle" x="109.6" y="-148.4" font-family="Helvetica,sans-Serif" font-size="9.00">B|b : λ</text>
</g>
<!-- q33 -->
<g id="node36" class="node">
<title>q33</title>
<ellipse fill="none" stroke="black" cx="163.2" cy="-69.6" rx="20.71" ry="20.71"/>
<text text-anchor="middle" x="163.2" y="-67.1" font-family="Helvetica,sans-Serif" font-size="10.00">q33</text>
</g>
<!-- q0&#45;&gt;q33 -->
<g id="edge41" class="edge">
<title>q0&#45;&gt;q33</title>
<path fill="none" stroke="black" d="M71.09,-147.09C77.69,-139.6 86.3,-130.27 94.6,-122.6 108.26,-109.99 124.65,-97.09 137.87,-87.17"/>
<polygon fill="black" stroke="black" points="140.09,-89.89 146.04,-81.12 135.92,-84.26 140.09,-89.89"/>
<text text-anchor="middle" x="109.6" y="-125.4" font-family="Helvetica,sans-Serif" font-size="9.00">S|s : λ</text>
</g>
<!-- q38 -->
<g id="node41" class="node">
<title>q38</title>
<ellipse fill="none" stroke="black" cx="222.41" cy="-20.6" rx="20.71" ry="20.71"/>
<text text-anchor="middle" x="222.41" y="-18.1" font-family="Helvetica,sans-Serif" font-size="10.00">q38</text>
</g>
<!-- q0&#45;&gt;q38 -->
<g id="edge47" class="edge">
<title>q0&#45;&gt;q38</title>
<path fill="none" stroke="black" d="M65.07,-143.65C70.84,-127.31 80.97,-102.38 94.6,-83.6 111.6,-60.18 117.06,-53.2 142.6,-39.6 157.74,-31.54 176.33,-26.85 191.65,-24.15"/>
<polygon fill="black" stroke="black" points="192.31,-27.58 201.65,-22.57 191.23,-20.67 192.31,-27.58"/>
<text text-anchor="middle" x="109.6" y="-86.4" font-family="Helvetica,sans-Serif" font-size="9.00">R|r : λ</text>
</g>
<!-- qf -->
<g id="node3" class="node">
<title>qf</title>
<ellipse fill="none" stroke="black" cx="1435.28" cy="-202.6" rx="18" ry="18"/>
<ellipse fill="none" stroke="black" cx="1435.28" cy="-202.6" rx="22" ry="22"/>
<text text-anchor="middle" x="1435.28" y="-200.1" font-family="Helvetica,sans-Serif" font-size="10.00">qf</text>
</g>
<!-- q2 -->
<g id="node5" class="node">
<title>q2</title>
<ellipse fill="none" stroke="black" cx="281.62" cy="-392.6" rx="18" ry="18"/>
<text text-anchor="middle" x="281.62" y="-390.1" font-family="Helvetica,sans-Serif" font-size="10.00">q2</text>
</g>
<!-- q1&#45;&gt;q2 -->
<g id="edge3" class="edge">
<title>q1&#45;&gt;q2</title>
<path fill="none" stroke="black" d="M180.39,-353C199.76,-360.65 232.44,-373.57 255.19,-382.56"/>
<polygon fill="black" stroke="black" points="253.98,-385.84 264.57,-386.26 256.55,-379.33 253.98,-385.84"/>
<text text-anchor="middle" x="222.41" y="-380.4" font-family="Helvetica,sans-Serif" font-size="9.00">A|a : λ</text>
</g>
<!-- q11 -->
<g id="node14" class="node">
<title>q11</title>
<ellipse fill="none" stroke="black" cx="340.82" cy="-346.6" rx="20.71" ry="20.71"/>
<text text-anchor="middle" x="340.82" y="-344.1" font-family="Helvetica,sans-Serif" font-size="10.00">q11</text>
</g>
<!-- q1&#45;&gt;q11 -->
<g id="edge13" class="edge">
<title>q1&#45;&gt;q11</title>
<path fill="none" stroke="black" d="M181.36,-346.6C211.21,-346.6 273.04,-346.6 310.02,-346.6"/>
<polygon fill="black" stroke="black" points="310.2,-350.1 320.2,-346.6 310.2,-343.1 310.2,-350.1"/>
<text text-anchor="middle" x="222.41" y="-349.4" font-family="Helvetica,sans-Serif" font-size="9.00">S|s : λ</text>
</g>
<!-- q3 -->
<g id="node6" class="node">
<title>q3</title>
<ellipse fill="none" stroke="black" cx="400.03" cy="-392.6" rx="18" ry="18"/>
<text text-anchor="middle" x="400.03" y="-390.1" font-family="Helvetica,sans-Serif" font-size="10.00">q3</text>
</g>
<!-- q2&#45;&gt;q3 -->
<g id="edge4" class="edge">
<title>q2&#45;&gt;q3</title>
<path fill="none" stroke="black" d="M299.79,-392.6C318.71,-392.6 349.38,-392.6 371.63,-392.6"/>
<polygon fill="black" stroke="black" points="371.78,-396.1 381.78,-392.6 371.78,-389.1 371.78,-396.1"/>
<text text-anchor="middle" x="340.82" y="-395.4" font-family="Helvetica,sans-Serif" font-size="9.00">V|v : λ</text>
</g>
<!-- q4 -->
<g id="node7" class="node">
<title>q4</title>
<ellipse fill="none" stroke="black" cx="518.44" cy="-392.6" rx="18" ry="18"/>
<text text-anchor="middle" x="518.44" y="-390.1" font-family="Helvetica,sans-Serif" font-size="10.00">q4</text>
</g>
<!-- q3&#45;&gt;q4 -->
<g id="edge5" class="edge">
<title>q3&#45;&gt;q4</title>
<path fill="none" stroke="black" d="M418.21,-392.6C437.12,-392.6 467.8,-392.6 490.04,-392.6"/>
<polygon fill="black" stroke="black" points="490.19,-396.1 500.19,-392.6 490.19,-389.1 490.19,-396.1"/>
<text text-anchor="middle" x="459.24" y="-395.4" font-family="Helvetica,sans-Serif" font-size="9.00">A|a : λ</text>
</g>
<!-- q5 -->
<g id="node8" class="node">
<title>q5</title>
<ellipse fill="none" stroke="black" cx="636.85" cy="-392.6" rx="18" ry="18"/>
<text text-anchor="middle" x="636.85" y="-390.1" font-family="Helvetica,sans-Serif" font-size="10.00">q5</text>
</g>
<!-- q4&#45;&gt;q5 -->
<g id="edge6" class="edge">
<title>q4&#45;&gt;q5</title>
<path fill="none" stroke="black" d="M536.62,-392.6C555.53,-392.6 586.21,-392.6 608.45,-392.6"/>
<polygon fill="black" stroke="black" points="608.61,-396.1 618.61,-392.6 608.61,-389.1 608.61,-396.1"/>
<text text-anchor="middle" x="577.65" y="-395.4" font-family="Helvetica,sans-Serif" font-size="9.00">S|s : λ</text>
</g>
<!-- q6 -->
<g id="node9" class="node">
<title>q6</title>
<ellipse fill="none" stroke="black" cx="755.27" cy="-392.6" rx="18" ry="18"/>
<text text-anchor="middle" x="755.27" y="-390.1" font-family="Helvetica,sans-Serif" font-size="10.00">q6</text>
</g>
<!-- q5&#45;&gt;q6 -->
<g id="edge7" class="edge">
<title>q5&#45;&gt;q6</title>
<path fill="none" stroke="black" d="M655.03,-392.6C673.95,-392.6 704.62,-392.6 726.87,-392.6"/>
<polygon fill="black" stroke="black" points="727.02,-396.1 737.02,-392.6 727.02,-389.1 727.02,-396.1"/>
<text text-anchor="middle" x="696.06" y="-395.4" font-family="Helvetica,sans-Serif" font-size="9.00">C|c : λ</text>
</g>
<!-- q7 -->
<g id="node10" class="node">
<title>q7</title>
<ellipse fill="none" stroke="black" cx="913.87" cy="-392.6" rx="18" ry="18"/>
<text text-anchor="middle" x="913.87" y="-390.1" font-family="Helvetica,sans-Serif" font-size="10.00">q7</text>
</g>
<!-- q6&#45;&gt;q7 -->
<g id="edge8" class="edge">
<title>q6&#45;&gt;q7</title>
<path fill="none" stroke="black" d="M773.32,-392.6C800.39,-392.6 853.41,-392.6 885.73,-392.6"/>
<polygon fill="black" stroke="black" points="885.83,-396.1 895.83,-392.6 885.83,-389.1 885.83,-396.1"/>
<text text-anchor="middle" x="827.37" y="-395.4" font-family="Helvetica,sans-Serif" font-size="9.00">R|r : λ</text>
</g>
<!-- q8 -->
<g id="node11" class="node">
<title>q8</title>
<ellipse fill="none" stroke="black" cx="1047.87" cy="-392.6" rx="18" ry="18"/>
<text text-anchor="middle" x="1047.87" y="-390.1" font-family="Helvetica,sans-Serif" font-size="10.00">q8</text>
</g>
<!-- q7&#45;&gt;q8 -->
<g id="edge9" class="edge">
<title>q7&#45;&gt;q8</title>
<path fill="none" stroke="black" d="M932.13,-392.6C954.36,-392.6 993.27,-392.6 1019.55,-392.6"/>
<polygon fill="black" stroke="black" points="1019.61,-396.1 1029.61,-392.6 1019.61,-389.1 1019.61,-396.1"/>
<text text-anchor="middle" x="987.87" y="-395.4" font-family="Helvetica,sans-Serif" font-size="9.00">I|i : λ</text>
</g>
<!-- q9 -->
<g id="node12" class="node">
<title>q9</title>
<ellipse fill="none" stroke="black" cx="1178.47" cy="-393.6" rx="18" ry="18"/>
<text text-anchor="middle" x="1178.47" y="-391.1" font-family="Helvetica,sans-Serif" font-size="10.00">q9</text>
</g>
<!-- q8&#45;&gt;q9 -->
<g id="edge10" class="edge">
<title>q8&#45;&gt;q9</title>
<path fill="none" stroke="black" d="M1065.95,-392.74C1087.47,-392.9 1124.72,-393.19 1150.21,-393.39"/>
<polygon fill="black" stroke="black" points="1150.3,-396.89 1160.33,-393.47 1150.35,-389.89 1150.3,-396.89"/>
<text text-anchor="middle" x="1113.37" y="-395.4" font-family="Helvetica,sans-Serif" font-size="9.00">P|p : λ</text>
</g>
<!-- q10 -->
<g id="node13" class="node">
<title>q10</title>
<ellipse fill="none" stroke="black" cx="1286.68" cy="-395.6" rx="20.71" ry="20.71"/>
<text text-anchor="middle" x="1286.68" y="-393.1" font-family="Helvetica,sans-Serif" font-size="10.00">q10</text>
</g>
<!-- q9&#45;&gt;q10 -->
<g id="edge11" class="edge">
<title>q9&#45;&gt;q10</title>
<path fill="none" stroke="black" d="M1196.54,-393.92C1212.47,-394.22 1236.59,-394.68 1255.73,-395.04"/>
<polygon fill="black" stroke="black" points="1255.7,-398.54 1265.76,-395.23 1255.83,-391.54 1255.7,-398.54"/>
<text text-anchor="middle" x="1232.58" y="-397.4" font-family="Helvetica,sans-Serif" font-size="9.00">T|t : λ</text>
</g>
<!-- q10&#45;&gt;qf -->
<g id="edge12" class="edge">
<title>q10&#45;&gt;qf</title>
<path fill="none" stroke="black" d="M1307.4,-394.76C1331.61,-392.64 1372.27,-385.35 1395.28,-360.6 1427.11,-326.39 1434.09,-270.43 1435.04,-235.11"/>
<polygon fill="black" stroke="black" points="1438.55,-234.9 1435.17,-224.86 1431.55,-234.82 1438.55,-234.9"/>
<text text-anchor="middle" x="1360.28" y="-394.4" font-family="Helvetica,sans-Serif" font-size="9.00"># : JAVASCRIPT</text>
</g>
<!-- q11&#45;&gt;qf -->
<g id="edge14" class="edge">
<title>q11&#45;&gt;qf</title>
<path fill="none" stroke="black" d="M361.6,-346.6C384.76,-346.6 424.28,-346.6 458.24,-346.6 458.24,-346.6 458.24,-346.6 1287.68,-346.6 1339.02,-346.6 1359.11,-341.03 1395.28,-304.6 1414.08,-285.67 1424,-256.74 1429.12,-234.51"/>
<polygon fill="black" stroke="black" points="1432.58,-235.03 1431.2,-224.53 1425.73,-233.6 1432.58,-235.03"/>
<text text-anchor="middle" x="827.37" y="-349.4" font-family="Helvetica,sans-Serif" font-size="9.00"># : JAVASCRIPT</text>
</g>
<!-- q13 -->
<g id="node16" class="node">
<title>q13</title>
<ellipse fill="none" stroke="black" cx="281.62" cy="-297.6" rx="20.71" ry="20.71"/>
<text text-anchor="middle" x="281.62" y="-295.1" font-family="Helvetica,sans-Serif" font-size="10.00">q13</text>
</g>
<!-- q12&#45;&gt;q13 -->
<g id="edge16" class="edge">
<title>q12&#45;&gt;q13</title>
<path fill="none" stroke="black" d="M182.39,-256.26C201.25,-264.2 230.96,-276.7 252.77,-285.88"/>
<polygon fill="black" stroke="black" points="251.6,-289.19 262.17,-289.84 254.31,-282.73 251.6,-289.19"/>
<text text-anchor="middle" x="222.41" y="-284.4" font-family="Helvetica,sans-Serif" font-size="9.00">Y|y : λ</text>
</g>
<!-- q22 -->
<g id="node25" class="node">
<title>q22</title>
<ellipse fill="none" stroke="black" cx="459.24" cy="-248.6" rx="20.71" ry="20.71"/>
<text text-anchor="middle" x="459.24" y="-246.1" font-family="Helvetica,sans-Serif" font-size="10.00">q22</text>
</g>
<!-- q12&#45;&gt;q22 -->
<g id="edge26" class="edge">
<title>q12&#45;&gt;q22</title>
<path fill="none" stroke="black" d="M183.95,-248.6C234.38,-248.6 368.14,-248.6 428.24,-248.6"/>
<polygon fill="black" stroke="black" points="428.57,-252.1 438.57,-248.6 428.57,-245.1 428.57,-252.1"/>
<text text-anchor="middle" x="281.62" y="-251.4" font-family="Helvetica,sans-Serif" font-size="9.00">S|s : λ</text>
</g>
<!-- q14 -->
<g id="node17" class="node">
<title>q14</title>
<ellipse fill="none" stroke="black" cx="400.03" cy="-297.6" rx="20.71" ry="20.71"/>
<text text-anchor="middle" x="400.03" y="-295.1" font-family="Helvetica,sans-Serif" font-size="10.00">q14</text>
</g>
<!-- q13&#45;&gt;q14 -->
<g id="edge17" class="edge">
<title>q13&#45;&gt;q14</title>
<path fill="none" stroke="black" d="M302.36,-297.6C320.68,-297.6 348.18,-297.6 369.18,-297.6"/>
<polygon fill="black" stroke="black" points="369.18,-301.1 379.18,-297.6 369.18,-294.1 369.18,-301.1"/>
<text text-anchor="middle" x="340.82" y="-300.4" font-family="Helvetica,sans-Serif" font-size="9.00">P|p : λ</text>
</g>
<!-- q15 -->
<g id="node18" class="node">
<title>q15</title>
<ellipse fill="none" stroke="black" cx="518.44" cy="-297.6" rx="20.71" ry="20.71"/>
<text text-anchor="middle" x="518.44" y="-295.1" font-family="Helvetica,sans-Serif" font-size="10.00">q15</text>
</g>
<!-- q14&#45;&gt;q15 -->
<g id="edge18" class="edge">
<title>q14&#45;&gt;q15</title>
<path fill="none" stroke="black" d="M420.78,-297.6C439.09,-297.6 466.6,-297.6 487.59,-297.6"/>
<polygon fill="black" stroke="black" points="487.6,-301.1 497.6,-297.6 487.6,-294.1 487.6,-301.1"/>
<text text-anchor="middle" x="459.24" y="-300.4" font-family="Helvetica,sans-Serif" font-size="9.00">E|e : λ</text>
</g>
<!-- q16 -->
<g id="node19" class="node">
<title>q16</title>
<ellipse fill="none" stroke="black" cx="636.85" cy="-297.6" rx="20.71" ry="20.71"/>
<text text-anchor="middle" x="636.85" y="-295.1" font-family="Helvetica,sans-Serif" font-size="10.00">q16</text>
</g>
<!-- q15&#45;&gt;q16 -->
<g id="edge19" class="edge">
<title>q15&#45;&gt;q16</title>
<path fill="none" stroke="black" d="M539.19,-297.6C557.5,-297.6 585.01,-297.6 606,-297.6"/>
<polygon fill="black" stroke="black" points="606.01,-301.1 616.01,-297.6 606.01,-294.1 606.01,-301.1"/>
<text text-anchor="middle" x="577.65" y="-300.4" font-family="Helvetica,sans-Serif" font-size="9.00">S|s : λ</text>
</g>
<!-- q17 -->
<g id="node20" class="node">
<title>q17</title>
<ellipse fill="none" stroke="black" cx="755.27" cy="-297.6" rx="20.71" ry="20.71"/>
<text text-anchor="middle" x="755.27" y="-295.1" font-family="Helvetica,sans-Serif" font-size="10.00">q17</text>
</g>
<!-- q16&#45;&gt;q17 -->
<g id="edge20" class="edge">
<title>q16&#45;&gt;q17</title>
<path fill="none" stroke="black" d="M657.6,-297.6C675.92,-297.6 703.42,-297.6 724.42,-297.6"/>
<polygon fill="black" stroke="black" points="724.42,-301.1 734.42,-297.6 724.42,-294.1 724.42,-301.1"/>
<text text-anchor="middle" x="696.06" y="-300.4" font-family="Helvetica,sans-Serif" font-size="9.00">C|c : λ</text>
</g>
<!-- q18 -->
<g id="node21" class="node">
<title>q18</title>
<ellipse fill="none" stroke="black" cx="913.87" cy="-297.6" rx="20.71" ry="20.71"/>
<text text-anchor="middle" x="913.87" y="-295.1" font-family="Helvetica,sans-Serif" font-size="10.00">q18</text>
</g>
<!-- q17&#45;&gt;q18 -->
<g id="edge21" class="edge">
<title>q17&#45;&gt;q18</title>
<path fill="none" stroke="black" d="M776.1,-297.6C803.05,-297.6 851.46,-297.6 882.86,-297.6"/>
<polygon fill="black" stroke="black" points="883.2,-301.1 893.2,-297.6 883.2,-294.1 883.2,-301.1"/>
<text text-anchor="middle" x="827.37" y="-300.4" font-family="Helvetica,sans-Serif" font-size="9.00">R|r : λ</text>
</g>
<!-- q19 -->
<g id="node22" class="node">
<title>q19</title>
<ellipse fill="none" stroke="black" cx="1047.87" cy="-297.6" rx="20.71" ry="20.71"/>
<text text-anchor="middle" x="1047.87" y="-295.1" font-family="Helvetica,sans-Serif" font-size="10.00">q19</text>
</g>
<!-- q18&#45;&gt;q19 -->
<g id="edge22" class="edge">
<title>q18&#45;&gt;q19</title>
<path fill="none" stroke="black" d="M934.63,-297.6C956.41,-297.6 991.67,-297.6 1016.86,-297.6"/>
<polygon fill="black" stroke="black" points="1016.97,-301.1 1026.97,-297.6 1016.97,-294.1 1016.97,-301.1"/>
<text text-anchor="middle" x="987.87" y="-300.4" font-family="Helvetica,sans-Serif" font-size="9.00">I|i : λ</text>
</g>
<!-- q20 -->
<g id="node23" class="node">
<title>q20</title>
<ellipse fill="none" stroke="black" cx="1178.47" cy="-297.6" rx="20.71" ry="20.71"/>
<text text-anchor="middle" x="1178.47" y="-295.1" font-family="Helvetica,sans-Serif" font-size="10.00">q20</text>
</g>
<!-- q19&#45;&gt;q20 -->
<g id="edge23" class="edge">
<title>q19&#45;&gt;q20</title>
<path fill="none" stroke="black" d="M1068.68,-297.6C1089.8,-297.6 1123.46,-297.6 1147.75,-297.6"/>
<polygon fill="black" stroke="black" points="1147.85,-301.1 1157.85,-297.6 1147.85,-294.1 1147.85,-301.1"/>
<text text-anchor="middle" x="1113.37" y="-300.4" font-family="Helvetica,sans-Serif" font-size="9.00">P|p : λ</text>
</g>
<!-- q21 -->
<g id="node24" class="node">
<title>q21</title>
<ellipse fill="none" stroke="black" cx="1286.68" cy="-297.6" rx="20.71" ry="20.71"/>
<text text-anchor="middle" x="1286.68" y="-295.1" font-family="Helvetica,sans-Serif" font-size="10.00">q21</text>
</g>
<!-- q20&#45;&gt;q21 -->
<g id="edge24" class="edge">
<title>q20&#45;&gt;q21</title>
<path fill="none" stroke="black" d="M1199.45,-297.6C1215.32,-297.6 1237.77,-297.6 1255.78,-297.6"/>
<polygon fill="black" stroke="black" points="1255.79,-301.1 1265.79,-297.6 1255.79,-294.1 1255.79,-301.1"/>
<text text-anchor="middle" x="1232.58" y="-300.4" font-family="Helvetica,sans-Serif" font-size="9.00">T|t : λ</text>
</g>
<!-- q21&#45;&gt;qf -->
<g id="edge25" class="edge">
<title>q21&#45;&gt;qf</title>
<path fill="none" stroke="black" d="M1307.39,-295.23C1330.49,-291.59 1368.94,-282.81 1395.28,-262.6 1405.91,-254.45 1414.5,-242.52 1420.89,-231.45"/>
<polygon fill="black" stroke="black" points="1424.08,-232.91 1425.73,-222.44 1417.91,-229.59 1424.08,-232.91"/>
<text text-anchor="middle" x="1360.28" y="-293.4" font-family="Helvetica,sans-Serif" font-size="9.00"># : TYPESCRIPT</text>
</g>
<!-- q22&#45;&gt;qf -->
<g id="edge27" class="edge">
<title>q22&#45;&gt;qf</title>
<path fill="none" stroke="black" d="M480.01,-248.6C503.17,-248.6 542.69,-248.6 576.65,-248.6 576.65,-248.6 576.65,-248.6 1287.68,-248.6 1330.58,-248.6 1377.44,-230.45 1406.35,-216.95"/>
<polygon fill="black" stroke="black" points="1407.94,-220.07 1415.43,-212.58 1404.9,-213.76 1407.94,-220.07"/>
<text text-anchor="middle" x="913.87" y="-251.4" font-family="Helvetica,sans-Serif" font-size="9.00"># : TYPESCRIPT</text>
</g>
<!-- q24 -->
<g id="node27" class="node">
<title>q24</title>
<ellipse fill="none" stroke="black" cx="755.27" cy="-177.6" rx="20.71" ry="20.71"/>
<text text-anchor="middle" x="755.27" y="-175.1" font-family="Helvetica,sans-Serif" font-size="10.00">q24</text>
</g>
<!-- q23&#45;&gt;q24 -->
<g id="edge29" class="edge">
<title>q23&#45;&gt;q24</title>
<path fill="none" stroke="black" d="M243.18,-177.6C266.34,-177.6 305.87,-177.6 339.82,-177.6 339.82,-177.6 339.82,-177.6 637.85,-177.6 667.3,-177.6 700.93,-177.6 724.45,-177.6"/>
<polygon fill="black" stroke="black" points="724.49,-181.1 734.49,-177.6 724.49,-174.1 724.49,-181.1"/>
<text text-anchor="middle" x="459.24" y="-180.4" font-family="Helvetica,sans-Serif" font-size="9.00">Y|y : λ</text>
</g>
<!-- q24&#45;&gt;qf -->
<g id="edge35" class="edge">
<title>q24&#45;&gt;qf</title>
<path fill="none" stroke="black" d="M775.4,-182.66C804.75,-189.97 862.76,-202.6 912.87,-202.6 912.87,-202.6 912.87,-202.6 1287.68,-202.6 1327.35,-202.6 1373.06,-202.6 1402.75,-202.6"/>
<polygon fill="black" stroke="black" points="1402.92,-206.1 1412.92,-202.6 1402.92,-199.1 1402.92,-206.1"/>
<text text-anchor="middle" x="1113.37" y="-205.4" font-family="Helvetica,sans-Serif" font-size="9.00"># : PYTHON</text>
</g>
<!-- q25 -->
<g id="node28" class="node">
<title>q25</title>
<ellipse fill="none" stroke="black" cx="913.87" cy="-153.6" rx="20.71" ry="20.71"/>
<text text-anchor="middle" x="913.87" y="-151.1" font-family="Helvetica,sans-Serif" font-size="10.00">q25</text>
</g>
<!-- q24&#45;&gt;q25 -->
<g id="edge30" class="edge">
<title>q24&#45;&gt;q25</title>
<path fill="none" stroke="black" d="M775.78,-174.61C802.75,-170.48 851.62,-162.99 883.14,-158.16"/>
<polygon fill="black" stroke="black" points="883.75,-161.61 893.11,-156.63 882.69,-154.69 883.75,-161.61"/>
<text text-anchor="middle" x="827.37" y="-174.4" font-family="Helvetica,sans-Serif" font-size="9.00">T|t : λ</text>
</g>
<!-- q26 -->
<g id="node29" class="node">
<title>q26</title>
<ellipse fill="none" stroke="black" cx="1047.87" cy="-153.6" rx="20.71" ry="20.71"/>
<text text-anchor="middle" x="1047.87" y="-151.1" font-family="Helvetica,sans-Serif" font-size="10.00">q26</text>
</g>
<!-- q25&#45;&gt;q26 -->
<g id="edge31" class="edge">
<title>q25&#45;&gt;q26</title>
<path fill="none" stroke="black" d="M934.63,-153.6C956.41,-153.6 991.67,-153.6 1016.86,-153.6"/>
<polygon fill="black" stroke="black" points="1016.97,-157.1 1026.97,-153.6 1016.97,-150.1 1016.97,-157.1"/>
<text text-anchor="middle" x="987.87" y="-156.4" font-family="Helvetica,sans-Serif" font-size="9.00">H|h : λ</text>
</g>
<!-- q27 -->
<g id="node30" class="node">
<title>q27</title>
<ellipse fill="none" stroke="black" cx="1178.47" cy="-153.6" rx="20.71" ry="20.71"/>
<text text-anchor="middle" x="1178.47" y="-151.1" font-family="Helvetica,sans-Serif" font-size="10.00">q27</text>
</g>
<!-- q26&#45;&gt;q27 -->
<g id="edge32" class="edge">
<title>q26&#45;&gt;q27</title>
<path fill="none" stroke="black" d="M1068.68,-153.6C1089.8,-153.6 1123.46,-153.6 1147.75,-153.6"/>
<polygon fill="black" stroke="black" points="1147.85,-157.1 1157.85,-153.6 1147.85,-150.1 1147.85,-157.1"/>
<text text-anchor="middle" x="1113.37" y="-156.4" font-family="Helvetica,sans-Serif" font-size="9.00">O|o : λ</text>
</g>
<!-- q28 -->
<g id="node31" class="node">
<title>q28</title>
<ellipse fill="none" stroke="black" cx="1286.68" cy="-153.6" rx="20.71" ry="20.71"/>
<text text-anchor="middle" x="1286.68" y="-151.1" font-family="Helvetica,sans-Serif" font-size="10.00">q28</text>
</g>
<!-- q27&#45;&gt;q28 -->
<g id="edge33" class="edge">
<title>q27&#45;&gt;q28</title>
<path fill="none" stroke="black" d="M1199.45,-153.6C1215.32,-153.6 1237.77,-153.6 1255.78,-153.6"/>
<polygon fill="black" stroke="black" points="1255.79,-157.1 1265.79,-153.6 1255.79,-150.1 1255.79,-157.1"/>
<text text-anchor="middle" x="1232.58" y="-156.4" font-family="Helvetica,sans-Serif" font-size="9.00">N|n : λ</text>
</g>
<!-- q28&#45;&gt;qf -->
<g id="edge34" class="edge">
<title>q28&#45;&gt;qf</title>
<path fill="none" stroke="black" d="M1307.31,-156.21C1329.33,-159.58 1365.84,-166.5 1395.28,-178.6 1399.53,-180.35 1403.85,-182.53 1408,-184.86"/>
<polygon fill="black" stroke="black" points="1406.31,-187.93 1416.68,-190.1 1409.92,-181.94 1406.31,-187.93"/>
<text text-anchor="middle" x="1360.28" y="-181.4" font-family="Helvetica,sans-Serif" font-size="9.00"># : PYTHON</text>
</g>
<!-- q30 -->
<g id="node33" class="node">
<title>q30</title>
<ellipse fill="none" stroke="black" cx="281.62" cy="-128.6" rx="20.71" ry="20.71"/>
<text text-anchor="middle" x="281.62" y="-126.1" font-family="Helvetica,sans-Serif" font-size="10.00">q30</text>
</g>
<!-- q29&#45;&gt;q30 -->
<g id="edge37" class="edge">
<title>q29&#45;&gt;q30</title>
<path fill="none" stroke="black" d="M183.95,-128.6C202.26,-128.6 229.77,-128.6 250.76,-128.6"/>
<polygon fill="black" stroke="black" points="250.77,-132.1 260.77,-128.6 250.77,-125.1 250.77,-132.1"/>
<text text-anchor="middle" x="222.41" y="-131.4" font-family="Helvetica,sans-Serif" font-size="9.00">A|a : λ</text>
</g>
<!-- q31 -->
<g id="node34" class="node">
<title>q31</title>
<ellipse fill="none" stroke="black" cx="400.03" cy="-128.6" rx="20.71" ry="20.71"/>
<text text-anchor="middle" x="400.03" y="-126.1" font-family="Helvetica,sans-Serif" font-size="10.00">q31</text>
</g>
<!-- q30&#45;&gt;q31 -->
<g id="edge38" class="edge">
<title>q30&#45;&gt;q31</title>
<path fill="none" stroke="black" d="M302.36,-128.6C320.68,-128.6 348.18,-128.6 369.18,-128.6"/>
<polygon fill="black" stroke="black" points="369.18,-132.1 379.18,-128.6 369.18,-125.1 369.18,-132.1"/>
<text text-anchor="middle" x="340.82" y="-131.4" font-family="Helvetica,sans-Serif" font-size="9.00">S|s : λ</text>
</g>
<!-- q32 -->
<g id="node35" class="node">
<title>q32</title>
<ellipse fill="none" stroke="black" cx="577.65" cy="-113.6" rx="20.71" ry="20.71"/>
<text text-anchor="middle" x="577.65" y="-111.1" font-family="Helvetica,sans-Serif" font-size="10.00">q32</text>
</g>
<!-- q31&#45;&gt;q32 -->
<g id="edge39" class="edge">
<title>q31&#45;&gt;q32</title>
<path fill="none" stroke="black" d="M420.83,-126.91C451.48,-124.29 510.61,-119.24 546.56,-116.17"/>
<polygon fill="black" stroke="black" points="547.25,-119.63 556.92,-115.29 546.65,-112.65 547.25,-119.63"/>
<text text-anchor="middle" x="459.24" y="-127.4" font-family="Helvetica,sans-Serif" font-size="9.00">H|h : λ</text>
</g>
<!-- q32&#45;&gt;qf -->
<g id="edge40" class="edge">
<title>q32&#45;&gt;qf</title>
<path fill="none" stroke="black" d="M598.39,-111.14C621.51,-108.48 661.01,-104.6 695.06,-104.6 695.06,-104.6 695.06,-104.6 1287.68,-104.6 1340.41,-104.6 1353.68,-122.2 1395.28,-154.6 1403.12,-160.71 1410.39,-168.67 1416.47,-176.35"/>
<polygon fill="black" stroke="black" points="1413.77,-178.59 1422.58,-184.47 1419.37,-174.38 1413.77,-178.59"/>
<text text-anchor="middle" x="987.87" y="-107.4" font-family="Helvetica,sans-Serif" font-size="9.00"># : BASH</text>
</g>
<!-- q34 -->
<g id="node37" class="node">
<title>q34</title>
<ellipse fill="none" stroke="black" cx="281.62" cy="-69.6" rx="20.71" ry="20.71"/>
<text text-anchor="middle" x="281.62" y="-67.1" font-family="Helvetica,sans-Serif" font-size="10.00">q34</text>
</g>
<!-- q33&#45;&gt;q34 -->
<g id="edge42" class="edge">
<title>q33&#45;&gt;q34</title>
<path fill="none" stroke="black" d="M183.95,-69.6C202.26,-69.6 229.77,-69.6 250.76,-69.6"/>
<polygon fill="black" stroke="black" points="250.77,-73.1 260.77,-69.6 250.77,-66.1 250.77,-73.1"/>
<text text-anchor="middle" x="222.41" y="-72.4" font-family="Helvetica,sans-Serif" font-size="9.00">H|h : λ</text>
</g>
<!-- q35 -->
<g id="node38" class="node">
<title>q35</title>
<ellipse fill="none" stroke="black" cx="400.03" cy="-69.6" rx="20.71" ry="20.71"/>
<text text-anchor="middle" x="400.03" y="-67.1" font-family="Helvetica,sans-Serif" font-size="10.00">q35</text>
</g>
<!-- q34&#45;&gt;q35 -->
<g id="edge43" class="edge">
<title>q34&#45;&gt;q35</title>
<path fill="none" stroke="black" d="M302.36,-69.6C320.68,-69.6 348.18,-69.6 369.18,-69.6"/>
<polygon fill="black" stroke="black" points="369.18,-73.1 379.18,-69.6 369.18,-66.1 369.18,-73.1"/>
<text text-anchor="middle" x="340.82" y="-72.4" font-family="Helvetica,sans-Serif" font-size="9.00">E|e : λ</text>
</g>
<!-- q36 -->
<g id="node39" class="node">
<title>q36</title>
<ellipse fill="none" stroke="black" cx="518.44" cy="-69.6" rx="20.71" ry="20.71"/>
<text text-anchor="middle" x="518.44" y="-67.1" font-family="Helvetica,sans-Serif" font-size="10.00">q36</text>
</g>
<!-- q35&#45;&gt;q36 -->
<g id="edge44" class="edge">
<title>q35&#45;&gt;q36</title>
<path fill="none" stroke="black" d="M420.78,-69.6C439.09,-69.6 466.6,-69.6 487.59,-69.6"/>
<polygon fill="black" stroke="black" points="487.6,-73.1 497.6,-69.6 487.6,-66.1 487.6,-73.1"/>
<text text-anchor="middle" x="459.24" y="-72.4" font-family="Helvetica,sans-Serif" font-size="9.00">L|l : λ</text>
</g>
<!-- q37 -->
<g id="node40" class="node">
<title>q37</title>
<ellipse fill="none" stroke="black" cx="696.06" cy="-66.6" rx="20.71" ry="20.71"/>
<text text-anchor="middle" x="696.06" y="-64.1" font-family="Helvetica,sans-Serif" font-size="10.00">q37</text>
</g>
<!-- q36&#45;&gt;q37 -->
<g id="edge45" class="edge">
<title>q36&#45;&gt;q37</title>
<path fill="none" stroke="black" d="M539.25,-69.26C569.89,-68.74 629.02,-67.73 664.97,-67.12"/>
<polygon fill="black" stroke="black" points="665.39,-70.61 675.33,-66.94 665.27,-63.61 665.39,-70.61"/>
<text text-anchor="middle" x="577.65" y="-71.4" font-family="Helvetica,sans-Serif" font-size="9.00">L|l : λ</text>
</g>
<!-- q37&#45;&gt;qf -->
<g id="edge46" class="edge">
<title>q37&#45;&gt;qf</title>
<path fill="none" stroke="black" d="M716.78,-66.6C742.13,-66.6 787.53,-66.6 826.37,-66.6 826.37,-66.6 826.37,-66.6 1287.68,-66.6 1336.68,-66.6 1358.69,-58.02 1395.28,-90.6 1418.02,-110.85 1427.5,-145.08 1431.46,-170.38"/>
<polygon fill="black" stroke="black" points="1428.03,-171.16 1432.84,-180.61 1434.97,-170.23 1428.03,-171.16"/>
<text text-anchor="middle" x="1047.87" y="-69.4" font-family="Helvetica,sans-Serif" font-size="9.00"># : BASH</text>
</g>
<!-- q38&#45;&gt;qf -->
<g id="edge48" class="edge">
<title>q38&#45;&gt;qf</title>
<path fill="none" stroke="black" d="M243.18,-20.6C266.34,-20.6 305.87,-20.6 339.82,-20.6 339.82,-20.6 339.82,-20.6 1287.68,-20.6 1338.7,-20.6 1360.83,-22.98 1395.28,-60.6 1422.9,-90.76 1431.23,-138.65 1433.59,-170.35"/>
<polygon fill="black" stroke="black" points="1430.11,-170.66 1434.19,-180.44 1437.09,-170.25 1430.11,-170.66"/>
<text text-anchor="middle" x="755.27" y="-23.4" font-family="Helvetica,sans-Serif" font-size="9.00"># : R</text>
</g>
</g>
</svg>
